<svg width="416" height="137" viewBox="0 0 416 137" fill="none" xmlns="http://www.w3.org/2000/svg">
<path d="M21.017 4.05031C21.0559 4.42329 21.0949 4.79626 21.1338 5.16924C39.1651 3.38097 57.3468 2.48808 75.4226 3.54167C85.3972 4.16135 95.3692 5.36267 104.96 8.01229C143.34 18.4124 157.528 70.3753 201.996 69.8404C245.994 70.1828 258.932 17.9432 297.032 8.49147C328.256 0.0733877 361.554 2.6145 393.715 5.92344C404.273 6.89762 412.693 16.9267 412.458 27.4758C412.441 55.2209 412.432 82.9661 412.429 110.711C412.435 114.559 411.438 118.387 409.55 121.732C405.691 128.708 397.912 133.292 389.929 133.213C268.262 133.233 146.596 133.393 24.9288 133.693C12.6913 134.025 1.58664 123.006 1.8498 110.711C1.79376 89.9915 1.73364 69.2718 1.66946 48.552C1.64777 41.5497 1.62561 34.5473 1.60299 27.545C1.3205 16.6123 10.0884 6.1123 21.1338 5.16924C21.0949 4.79626 21.0559 4.42329 21.017 4.05031C9.38761 4.9579 0.0272903 15.983 0.254677 27.545C0.232056 34.5473 0.209899 41.5497 0.188208 48.552C0.124024 69.2718 0.063908 89.9915 0.0078612 110.711C-0.350653 123.984 11.5986 136.019 24.9288 135.73C146.595 136.03 268.262 136.19 389.929 136.209C398.969 136.302 407.797 131.106 412.164 123.203C414.305 119.413 415.436 115.061 415.428 110.711C415.426 82.9661 415.417 55.2209 415.4 27.4758C415.665 15.5691 406.077 4.13708 394.042 3.04701C361.656 -0.20751 328.322 -2.78324 296.258 5.93096C256.51 16.5126 243.861 68.234 201.973 67.582C159.572 68.7327 145.012 17.3353 105.402 6.41013C95.6189 3.76997 85.5543 2.62579 75.5075 2.06285C57.3068 1.11581 39.082 2.13363 21.017 4.05031ZM21.1338 5.16924L21.017 4.05031L21.1338 5.16924Z" fill="#0754B0"/>
</svg>
